<?xml version="1.0" standalone="no"?>
<!DOCTYPE svg PUBLIC "-//W3C//DTD SVG 20010904//EN"
 "http://www.w3.org/TR/2001/REC-SVG-20010904/DTD/svg10.dtd">
<svg version="1.0" xmlns="http://www.w3.org/2000/svg"
 width="1920.000000pt" height="1920.000000pt" viewBox="0 0 1920.000000 1920.000000"
 preserveAspectRatio="xMidYMid meet">

<g transform="translate(0.000000,1920.000000) scale(0.100000,-0.100000)"
fill="#000000" stroke="none">
<path d="M0 9600 l0 -9600 9600 0 9600 0 0 9600 0 9600 -9600 0 -9600 0 0
-9600z m13945 6788 c201 -30 374 -63 490 -93 33 -9 78 -20 101 -25 22 -5 51
-13 65 -18 13 -6 51 -18 84 -27 33 -10 74 -24 92 -32 17 -7 36 -13 42 -13 6 0
25 -6 43 -14 18 -8 53 -22 78 -31 25 -10 59 -23 75 -30 17 -7 41 -18 55 -23
56 -23 299 -144 355 -177 33 -19 67 -38 75 -42 61 -29 290 -184 414 -280 559
-432 1017 -1045 1252 -1675 8 -21 21 -56 29 -78 29 -77 42 -115 57 -165 63
-210 95 -341 122 -505 9 -52 22 -117 28 -145 17 -72 18 -1119 1 -1195 -7 -30
-19 -98 -28 -150 -40 -242 -112 -505 -195 -720 -12 -30 -24 -63 -27 -74 -3
-10 -19 -45 -35 -78 -15 -32 -28 -61 -28 -64 0 -6 -105 -219 -128 -259 -113
-201 -304 -483 -418 -615 -96 -111 -128 -147 -213 -235 -236 -244 -467 -437
-706 -590 -49 -31 -102 -66 -117 -76 -15 -11 -30 -19 -33 -19 -3 0 -22 -11
-43 -24 -43 -27 -252 -134 -327 -167 -113 -50 -141 -62 -165 -70 -14 -4 -70
-24 -125 -44 -55 -20 -113 -40 -130 -45 -16 -4 -57 -16 -90 -25 -196 -56 -447
-105 -610 -121 -38 -3 -80 -13 -92 -20 -34 -21 -849 -20 -877 1 -11 8 -34 15
-50 15 -76 0 -434 70 -606 118 -154 43 -160 45 -250 77 -70 26 -206 77 -225
85 -11 5 -38 16 -60 26 -56 24 -311 149 -360 177 -22 12 -77 45 -123 72 -46
28 -91 55 -100 60 -161 96 -435 318 -634 515 -191 189 -305 322 -437 510 -33
47 -65 90 -70 97 -6 7 -11 14 -11 17 0 2 -18 32 -40 65 -33 49 -190 328 -190
336 0 2 -17 41 -39 87 -21 45 -51 112 -65 148 -15 36 -31 74 -35 85 -17 39
-49 125 -81 215 -6 19 -15 51 -19 71 -4 19 -10 40 -14 46 -6 9 -66 249 -87
343 -13 60 -45 270 -61 400 -17 138 -17 660 0 800 18 154 50 368 61 420 24
109 74 309 88 355 89 290 152 449 276 695 35 69 72 139 82 157 269 459 595
841 979 1147 263 210 574 399 865 526 126 55 318 125 455 165 33 10 71 22 85
26 22 7 79 21 250 59 63 14 157 29 278 44 57 8 106 17 109 20 4 4 196 5 427 3
322 -2 447 -7 531 -19z m-10725 -168 l1399 0 465 -465 c255 -256 470 -465 477
-465 6 0 221 209 477 465 l466 465 1412 0 c1175 0 1413 -2 1423 -14 8 -10 10
-1004 9 -3782 l-3 -3769 -1420 0 -1420 0 -3 453 c-2 351 -5 452 -15 452 -6 0
-218 -206 -469 -457 l-458 -458 -463 463 c-254 254 -465 462 -469 462 -4 0 -9
-206 -10 -457 l-3 -458 -1417 -3 -1418 -2 0 3783 c0 2081 3 3787 7 3791 4 3
13 4 21 1 7 -3 643 -5 1412 -5z m1461 -8340 c30 -5 98 -16 152 -25 299 -46
631 -168 895 -327 330 -198 621 -481 837 -812 77 -119 205 -355 205 -378 0 -7
-15 -23 -33 -35 -17 -12 -89 -66 -159 -120 -175 -136 -265 -205 -558 -429 -58
-44 -150 -115 -205 -157 -55 -43 -150 -116 -212 -163 -62 -47 -116 -83 -121
-80 -5 3 -28 42 -51 87 -180 349 -433 622 -682 738 -137 63 -256 86 -408 78
-234 -12 -447 -104 -609 -261 -181 -175 -274 -400 -276 -666 -1 -258 79 -464
248 -638 83 -87 145 -131 256 -185 180 -87 416 -127 572 -97 174 35 259 68
384 152 201 134 393 361 540 636 21 39 43 72 47 72 5 0 83 -57 175 -127 92
-70 223 -170 292 -222 69 -52 188 -142 264 -200 76 -58 231 -176 344 -261 113
-86 210 -163 215 -172 8 -12 -2 -35 -43 -99 -159 -250 -313 -443 -509 -639
-322 -320 -645 -525 -1021 -646 -78 -25 -322 -78 -445 -96 -102 -15 -607 -22
-685 -9 -36 5 -103 15 -150 21 -395 54 -787 210 -1100 439 -577 422 -943 1050
-1021 1750 -6 52 -17 108 -25 123 -20 39 -14 380 9 488 8 41 23 122 32 180
119 770 611 1445 1310 1798 66 33 136 67 155 75 19 8 49 20 65 27 154 64 382
127 557 155 51 8 118 19 148 24 75 12 544 13 611 1z m10074 -197 c33 -58 75
-134 93 -167 30 -54 107 -192 165 -296 11 -19 31 -55 45 -80 14 -25 64 -115
112 -200 48 -85 102 -182 120 -215 18 -33 72 -130 120 -215 48 -85 132 -236
187 -335 56 -99 111 -198 123 -220 29 -51 45 -79 168 -302 56 -100 130 -233
165 -295 35 -62 79 -140 97 -173 18 -33 70 -125 115 -205 45 -80 99 -176 120
-215 21 -38 66 -119 100 -180 34 -60 77 -137 95 -170 18 -33 62 -112 98 -175
36 -63 109 -194 162 -290 92 -165 343 -615 405 -725 15 -27 44 -79 63 -115 20
-36 53 -94 74 -129 21 -34 38 -67 38 -72 0 -5 -1142 -9 -2775 -9 -1526 0
-2775 4 -2775 8 0 5 140 251 311 548 171 296 321 557 334 579 12 22 48 85 80
140 32 55 66 114 75 130 10 17 47 81 84 144 36 62 66 115 66 116 0 1 30 54 66
116 86 147 85 145 196 339 128 224 1519 2634 1552 2690 15 25 29 53 33 63 11
34 29 15 88 -90z m-6057 -215 l2 -298 595 0 595 0 2 298 3 297 905 0 905 0 3
-2413 2 -2412 -907 2 -908 3 -3 298 -2 297 -595 0 -595 0 -2 -297 -3 -298
-907 -3 -908 -2 0 2415 0 2415 908 -2 907 -3 3 -297z"/>
</g>
</svg>
